<svg xmlns="http://www.w3.org/2000/svg" viewBox="0 0 236.24 94.16"><defs><style>.cls-1{fill:#0f1626;}.cls-2{fill:#ff533d;}</style></defs><g id="Layer_2" data-name="Layer 2"><g id="Layer_1-2" data-name="Layer 1"><path class="cls-1" d="M236.24,51.31c-3.6-3.6-7.2-5.76-12.36-5.76-9.49,0-14.89,8.88-14.89,17.52C209,72.32,214.87,80,224.48,80a16,16,0,0,0,11.76-5.64v16.2a29.28,29.28,0,0,1-14.52,3.6C204.31,94.16,192,79.88,192,63c0-17.52,12.84-31.56,30.61-31.56a26.36,26.36,0,0,1,13.68,3.72Z"/><path class="cls-2" d="M59.65,57.25c0,19.21-6.48,35.05-28.56,35.05-14.41,0-28.93-8.76-29.77-24.49H19.08c.84,6.25,5.29,10.33,11.65,10.33,11.88,0,12.12-10.45,12.12-19.33V55h-.24a20.48,20.48,0,0,1-16.08,7.8C9.24,62.77,0,47.65,0,31.81,0,15.6,9.84,0,27.37,0A19.51,19.51,0,0,1,42.61,7.56h.24V1.92h16.8ZM44.89,31.45c0-7.93-5.28-16.57-13.92-16.57S17,23.52,17,31.45,22.32,47.89,31,47.89,44.89,39.37,44.89,31.45Z"/><path class="cls-1" d="M114.69,60.85H98.13v-5.4h-.24c-3.6,4.68-9.84,7.32-16,7.32-17.29,0-27.13-15.72-27.13-31.68C54.8,15.48,64.76,0,81.68,0A21.8,21.8,0,0,1,98.13,7.44V1.92h16.56ZM99.81,31.33c0-7.93-5.4-16.45-14-16.45S71.84,23.4,71.84,31.33s5.28,16.56,13.93,16.56S99.81,39.25,99.81,31.33Z"/><path class="cls-1" d="M131.5,38.59h.24a17.74,17.74,0,0,1,14.4-7.2c7.32,0,13.08,3,16.92,9.24a20.4,20.4,0,0,1,17.17-9.24c15,0,18.72,11.28,18.72,24.12V92.24h-16.8v-31c0-5.76.36-16.44-7.93-16.44-9.12,0-9,12.36-9,18.48V92.24h-16.8V62.35c0-5.76.72-17.52-8-17.52-9.36,0-8.88,12.24-8.88,18.48V92.24H114.69V33.31H131.5Z"/></g></g></svg>