<?xml version="1.0" standalone="no"?>
<!DOCTYPE svg PUBLIC "-//W3C//DTD SVG 20010904//EN"
 "http://www.w3.org/TR/2001/REC-SVG-20010904/DTD/svg10.dtd">
<svg version="1.0" xmlns="http://www.w3.org/2000/svg"
 width="647.000000pt" height="178.000000pt" viewBox="0 0 647.000000 178.000000"
 preserveAspectRatio="xMidYMid meet">

<g transform="translate(0.000000,178.000000) scale(0.100000,-0.100000)"
fill="#000000" stroke="none">
<path d="M745 1770 c-297 -46 -527 -213 -650 -471 -36 -77 -79 -225 -69 -240
3 -5 106 -9 228 -9 l223 0 18 48 c72 195 213 303 395 304 142 0 260 -73 329
-201 l32 -60 107 45 c59 25 151 63 205 86 l97 41 -37 67 c-98 182 -269 316
-473 371 -87 23 -308 34 -405 19z"/>
<path d="M6105 1259 c-137 -21 -259 -81 -353 -172 -98 -95 -127 -87 323 -87
l395 0 0 100 c0 98 0 100 -27 114 -83 42 -230 62 -338 45z"/>
<path d="M2282 1210 c-100 -27 -164 -64 -241 -140 l-66 -65 590 -3 c325 -1
596 0 603 3 8 3 12 32 12 95 l0 90 -205 0 -205 0 0 -51 0 -51 -35 31 c-112 98
-290 134 -453 91z"/>
<path d="M4064 1216 c-76 -19 -132 -51 -196 -114 l-58 -56 0 72 0 72 -200 0
-200 0 0 -95 0 -95 941 0 941 0 -7 27 c-10 40 -63 109 -107 138 -156 104 -403
77 -541 -58 -24 -23 -51 -53 -61 -67 -16 -24 -17 -24 -28 -5 -7 11 -32 41 -56
67 -98 105 -273 151 -428 114z"/>
<path d="M15 753 c59 -474 438 -777 935 -750 134 8 241 35 356 92 233 114 397
364 430 654 l7 61 -427 0 -426 0 0 -80 0 -80 175 0 175 0 0 -23 c0 -83 -76
-189 -168 -234 -52 -25 -67 -28 -172 -28 -107 0 -119 2 -175 29 -120 59 -216
191 -251 345 l-16 71 -225 0 -225 0 7 -57z"/>
<path d="M1866 738 c-11 -43 -6 -203 10 -268 25 -108 80 -206 159 -285 120
-121 246 -170 415 -163 121 6 191 32 264 99 l55 50 3 -58 3 -58 200 0 200 0 0
350 0 350 -207 3 c-115 1 -208 0 -208 -4 0 -3 7 -31 16 -61 48 -166 -68 -323
-240 -323 -78 0 -128 16 -176 58 -88 74 -107 169 -65 310 l7 22 -215 0 c-214
0 -215 0 -221 -22z"/>
<path d="M3415 747 c-3 -6 -4 -165 -3 -352 l3 -340 198 -3 197 -2 0 278 c0
154 3 313 6 355 l7 77 -202 0 c-153 0 -203 -3 -206 -13z"/>
<path d="M4168 753 c-2 -5 -1 -163 2 -353 l5 -345 198 -3 197 -2 0 293 c0 162
3 322 6 356 l7 61 -206 0 c-113 0 -207 -3 -209 -7z"/>
<path d="M4928 753 c-2 -5 -2 -164 0 -355 l3 -348 199 0 200 0 0 355 0 355
-199 0 c-110 0 -201 -3 -203 -7z"/>
<path d="M5582 743 c-4 -10 -7 -59 -7 -108 2 -264 186 -491 453 -560 117 -30
296 -18 399 26 l43 18 0 172 c0 165 -1 171 -18 156 -40 -37 -115 -61 -187 -60
-119 1 -196 47 -246 149 -29 59 -31 69 -27 144 l5 80 -204 0 c-185 0 -204 -2
-211 -17z"/>
</g>
</svg>
